<svg id="Layer_1" data-name="Layer 1" xmlns="http://www.w3.org/2000/svg" viewBox="0 0 156.28 30.87"><path d="M5.45,30.37A6.43,6.43,0,0,1,3.27,30a4.06,4.06,0,0,1-1.64-1A2.26,2.26,0,0,1,1,27.39a2.61,2.61,0,0,1,.44-1.49,1.61,1.61,0,0,1,1.37-.69,1.39,1.39,0,0,1,1.44.56,2.42,2.42,0,0,1,.4,1.28,2.84,2.84,0,0,1,0,.45,2.8,2.8,0,0,1-.12.48,1.2,1.2,0,0,0,.79.56,2.22,2.22,0,0,0,.84.11A2.1,2.1,0,0,0,8,27.52a8,8,0,0,0,.61-3.66V2l-2.12.08-2.16.09V.3H15.49V1.69a3.36,3.36,0,0,0-2.08.54,2.63,2.63,0,0,0-.92,1.49,8.66,8.66,0,0,0-.23,2.12V19.45c0,3.95-.54,6.76-1.6,8.42A5.7,5.7,0,0,1,5.45,30.37Z" transform="translate(-1 0.5)"/><path d="M32.54,30.37A16,16,0,0,1,25.7,29a12.82,12.82,0,0,1-4.65-3.59,15.07,15.07,0,0,1-2.62-5A18.48,18.48,0,0,1,17.59,15a17.23,17.23,0,0,1,.88-5.36,15.57,15.57,0,0,1,2.71-5A13.79,13.79,0,0,1,25.76,1,14.19,14.19,0,0,1,32.21-.37,15,15,0,0,1,38.88,1a13.48,13.48,0,0,1,4.65,3.68,16.27,16.27,0,0,1,2.72,5A16.45,16.45,0,0,1,47.16,15a17.27,17.27,0,0,1-.88,5.31,15.71,15.71,0,0,1-2.71,5A13.72,13.72,0,0,1,39,29,14.19,14.19,0,0,1,32.54,30.37Zm.09-1.72a9,9,0,0,0,4.53-1.11,9.89,9.89,0,0,0,3.22-3,14.34,14.34,0,0,0,1.93-4.15A16.92,16.92,0,0,0,43,15.8a19,19,0,0,0-.72-5.17A16,16,0,0,0,40.14,6a11.13,11.13,0,0,0-3.42-3.38,8.56,8.56,0,0,0-4.64-1.28,9,9,0,0,0-4.56,1.13,9.89,9.89,0,0,0-3.23,3A13.84,13.84,0,0,0,22.36,9.6a16.72,16.72,0,0,0-.65,4.64,19,19,0,0,0,.65,4.83,17.2,17.2,0,0,0,2,4.71,11.25,11.25,0,0,0,3.4,3.53A8.79,8.79,0,0,0,32.63,28.65Z" transform="translate(-1 0.5)"/><path d="M50.1,29.7V28.31a3.1,3.1,0,0,0,2.18-.73,2.84,2.84,0,0,0,.65-1.81c0-.77.07-1.64.07-2.62V5c0-.56,0-1.09,0-1.61s.05-1,.08-1.41l-1.51.08-1.51.09V.3h9.45V1.69a2.93,2.93,0,0,0-2.17.71,2.86,2.86,0,0,0-.67,1.81q-.06,1.13-.06,2.64v7h15V5c0-.56,0-1.09,0-1.61s0-1,.08-1.41l-1.51.08-1.51.09V.3h9.45V1.69a2.88,2.88,0,0,0-2.16.71,2.87,2.87,0,0,0-.68,1.81q-.06,1.13-.06,2.64V24.7c0,.76,0,1.41,0,2A11.31,11.31,0,0,1,75.21,28l1.52-.08,1.51-.09V29.7H68.79V28.31A3.1,3.1,0,0,0,71,27.58a2.84,2.84,0,0,0,.65-1.81c0-.77.07-1.64.07-2.62V15.5l-15,.17v9c0,.76,0,1.41,0,2A11.31,11.31,0,0,1,56.52,28L58,27.94l1.51-.09V29.7Z" transform="translate(-1 0.5)"/><path d="M79.46,29.7V28.31a2.6,2.6,0,0,0,1.93-.67,5.14,5.14,0,0,0,1.11-1.85c.29-.78.64-1.69,1-2.73L92.18-.5h1l9.37,23.9c.22.59.47,1.34.75,2.27a6.55,6.55,0,0,1,.34,2.35l1.43-.08,1.42-.09V29.7H96.89V28.31A2.61,2.61,0,0,0,99,27.6a2.09,2.09,0,0,0,.37-1.6,7.13,7.13,0,0,0-.42-1.68l-1.47-3.94-10.92.25-1.47,4.49c-.19.67-.37,1.21-.52,1.6s-.33.82-.53,1.3l1.66-.08,1.62-.09V29.7Zm7.72-10.88h9.71l-3-8c-.3-.87-.62-1.73-.94-2.58S92.32,6.5,92,5.63h-.08c-.28.79-.57,1.57-.86,2.36s-.6,1.58-.9,2.39Z" transform="translate(-1 0.5)"/><path d="M107.47,29.7V28.31a3.1,3.1,0,0,0,2.18-.73,2.84,2.84,0,0,0,.65-1.81c0-.77.07-1.64.07-2.62V5c0-.56,0-1.09,0-1.61s0-1,.08-1.41L109,2.06l-1.51.09V.3l4.77-.08c1.61,0,3.22,0,4.85,0a20.53,20.53,0,0,1,6.57.94,7.46,7.46,0,0,1,3.67,2.56,6.75,6.75,0,0,1,1.18,4,8.55,8.55,0,0,1-.61,3.34,7.2,7.2,0,0,1-2.35,3,11.72,11.72,0,0,1-4.89,2,5.72,5.72,0,0,1,1.47,1.51c.42.61.89,1.33,1.43,2.14l2.85,4.49c.48.76.94,1.44,1.39,2a5.37,5.37,0,0,0,1.55,1.43,4.23,4.23,0,0,0,2.19.52V29.7h-5.3a15.5,15.5,0,0,1-2-2.18c-.55-.73-1.12-1.56-1.7-2.48l-2.82-4.5c-.36-.58-.78-1.26-1.24-2a8.61,8.61,0,0,0-1.57-2c-.45,0-.92.05-1.41.05s-1,0-1.45-.05V24.7c0,.76,0,1.41,0,2a11.58,11.58,0,0,1-.1,1.36c.33,0,.67-.05,1-.06l1-.07c.34,0,.67,0,1,0V29.7ZM116.62,15a12.54,12.54,0,0,0,4.06-.76,5.7,5.7,0,0,0,2.75-2.14,6.72,6.72,0,0,0,1-3.86A8.09,8.09,0,0,0,124,5.45a4.78,4.78,0,0,0-1.37-2,6.07,6.07,0,0,0-2.35-1.2,12.79,12.79,0,0,0-3.36-.4,2.93,2.93,0,0,0-2.16.63,2.68,2.68,0,0,0-.68,1.75C114,5,114,5.84,114,6.85v8.07l1.28.08A9.68,9.68,0,0,0,116.62,15Z" transform="translate(-1 0.5)"/><path d="M139.26,29.7V28.31a3,3,0,0,0,2.17-.75,3.13,3.13,0,0,0,.63-1.83q.06-1.15.06-2.58l0-4.79L134.85,6.81A27.27,27.27,0,0,1,133.28,4a9.2,9.2,0,0,1-.69-1.94c-.45,0-.89,0-1.31,0s-.85,0-1.3,0V.3h10.84V1.69a4.56,4.56,0,0,0-2.69.58,1.58,1.58,0,0,0-.57,1.62,7.06,7.06,0,0,0,1,2.37l3.36,5.3c.25.39.52.79.8,1.21l.86,1.28c.29.44.61.89.95,1.37h.08c.31-.62.61-1.21.92-1.79s.61-1.12.89-1.65L150,5.21c.14-.28.31-.61.52-1s.44-.77.69-1.18a6.34,6.34,0,0,1,.8-1c-.53,0-1.08,0-1.64.06l-1.68.07V.3h8.57V1.69a5.1,5.1,0,0,0-3.38,1.42,17.55,17.55,0,0,0-2.79,4q-1.43,2.7-2.75,5.17c-.89,1.65-1.73,3.26-2.54,4.83,0,.5,0,1.18,0,2s0,1.68,0,2.54v3c0,.76,0,1.41,0,2a11.58,11.58,0,0,1-.1,1.36l1.74-.08,1.74-.09V29.7Z" transform="translate(-1 0.5)"/></svg>